<svg width="128" height="128" viewBox="0 0 128 128" fill="none" xmlns="http://www.w3.org/2000/svg">
<path d="M26.6667 112C23.7333 112 21.2222 110.955 19.1333 108.867C17.0444 106.778 16 104.267 16 101.333V26.6666C16 23.7333 17.0444 21.2221 19.1333 19.1333C21.2222 17.0444 23.7333 15.9999 26.6667 15.9999H49.0667C50.2222 12.7999 52.1556 10.2221 54.8667 8.26659C57.5778 6.31103 60.6222 5.33325 64 5.33325C67.3778 5.33325 70.4222 6.31103 73.1333 8.26659C75.8444 10.2221 77.7778 12.7999 78.9333 15.9999H101.333C104.267 15.9999 106.778 17.0444 108.867 19.1333C110.956 21.2221 112 23.7333 112 26.6666V62.3999C110.311 61.5999 108.578 60.911 106.8 60.3333C105.022 59.7555 103.2 59.3333 101.333 59.0666V26.6666H26.6667V101.333H58.9333C59.2 103.289 59.6222 105.155 60.2 106.933C60.7778 108.711 61.4667 110.4 62.2667 112H26.6667ZM26.6667 95.9999V101.333V26.6666V59.0666V58.6666V95.9999ZM37.3333 90.6666H59.0667C59.3333 88.7999 59.7556 86.9777 60.3333 85.1999C60.9111 83.4221 61.5556 81.6888 62.2667 79.9999H37.3333V90.6666ZM37.3333 69.3333H69.8667C72.7111 66.6666 75.8889 64.4444 79.4 62.6666C82.9111 60.8888 86.6667 59.6888 90.6667 59.0666V58.6666H37.3333V69.3333ZM37.3333 47.9999H90.6667V37.3333H37.3333V47.9999ZM66.8667 21.5333C67.6222 20.7777 68 19.8221 68 18.6666C68 17.511 67.6222 16.5555 66.8667 15.7999C66.1111 15.0444 65.1556 14.6666 64 14.6666C62.8444 14.6666 61.8889 15.0444 61.1333 15.7999C60.3778 16.5555 60 17.511 60 18.6666C60 19.8221 60.3778 20.7777 61.1333 21.5333C61.8889 22.2888 62.8444 22.6666 64 22.6666C65.1556 22.6666 66.1111 22.2888 66.8667 21.5333ZM96 122.667C88.6222 122.667 82.3333 120.067 77.1333 114.867C71.9333 109.667 69.3333 103.378 69.3333 95.9999C69.3333 88.6221 71.9333 82.3333 77.1333 77.1333C82.3333 71.9333 88.6222 69.3333 96 69.3333C103.378 69.3333 109.667 71.9333 114.867 77.1333C120.067 82.3333 122.667 88.6221 122.667 95.9999C122.667 103.378 120.067 109.667 114.867 114.867C109.667 120.067 103.378 122.667 96 122.667ZM93.3333 112H98.6667V98.6666H112V93.3333H98.6667V79.9999H93.3333V93.3333H80V98.6666H93.3333V112Z" fill="#F9F9F9"/>
</svg>
