<svg width="128" height="128" viewBox="0 0 128 128" fill="none" xmlns="http://www.w3.org/2000/svg">
<path d="M26.6667 42.6667V101.333H101.333V42.6667H85.3333V85.3333L64 74.6667L42.6667 85.3333V42.6667H26.6667ZM26.6667 112C23.7333 112 21.2222 110.956 19.1333 108.867C17.0444 106.778 16 104.267 16 101.333V34.8C16 33.5556 16.2 32.3556 16.6 31.2C17 30.0444 17.6 28.9778 18.4 28L25.0667 19.8667C26.0444 18.6222 27.2667 17.6667 28.7333 17C30.2 16.3333 31.7333 16 33.3333 16H94.6667C96.2667 16 97.8 16.3333 99.2667 17C100.733 17.6667 101.956 18.6222 102.933 19.8667L109.6 28C110.4 28.9778 111 30.0444 111.4 31.2C111.8 32.3556 112 33.5556 112 34.8V101.333C112 104.267 110.956 106.778 108.867 108.867C106.778 110.956 104.267 112 101.333 112H26.6667ZM28.8 32H99.2L94.6667 26.6667H33.3333L28.8 32ZM53.3333 42.6667V68L64 62.6667L74.6667 68V42.6667H53.3333Z" fill="#F9F9F9"/>
</svg>
