<svg width="128" height="128" viewBox="0 0 128 128" fill="none" xmlns="http://www.w3.org/2000/svg">
<path d="M26.0003 102C22.8892 98.8888 21.3337 95.111 21.3337 90.6666H8.00033L10.4003 79.9999H25.467C26.9781 78.311 28.7559 76.9999 30.8003 76.0666C32.8448 75.1333 35.0225 74.6666 37.3337 74.6666C39.6448 74.6666 41.8226 75.1333 43.867 76.0666C45.9114 76.9999 47.6892 78.311 49.2003 79.9999H71.467L82.667 31.9999H24.267L24.8003 29.7333C25.3337 27.2444 26.5559 25.2221 28.467 23.6666C30.3781 22.111 32.6225 21.3333 35.2003 21.3333H96.0003L91.067 42.6666H106.667L122.667 63.9999L117.334 90.6666H106.667C106.667 95.111 105.111 98.8888 102 102C98.8892 105.111 95.1114 106.667 90.667 106.667C86.2225 106.667 82.4448 105.111 79.3337 102C76.2225 98.8888 74.667 95.111 74.667 90.6666H53.3337C53.3337 95.111 51.7781 98.8888 48.667 102C45.5559 105.111 41.7781 106.667 37.3337 106.667C32.8892 106.667 29.1114 105.111 26.0003 102ZM84.9337 69.3333H110.667L111.2 66.5333L101.334 53.3333H88.667L84.9337 69.3333ZM82.4003 32.9333L82.667 31.9999L71.467 79.9999L71.7337 79.0666L76.267 59.5999L82.4003 32.9333ZM2.66699 71.0666L5.33366 60.3999H34.667L32.0003 71.0666H2.66699ZM13.3337 51.5999L16.0003 40.9333H50.667L48.0003 51.5999H13.3337ZM37.3337 95.9999C38.8448 95.9999 40.1114 95.4888 41.1337 94.4666C42.1559 93.4444 42.667 92.1777 42.667 90.6666C42.667 89.1555 42.1559 87.8888 41.1337 86.8666C40.1114 85.8444 38.8448 85.3333 37.3337 85.3333C35.8225 85.3333 34.5559 85.8444 33.5337 86.8666C32.5114 87.8888 32.0003 89.1555 32.0003 90.6666C32.0003 92.1777 32.5114 93.4444 33.5337 94.4666C34.5559 95.4888 35.8225 95.9999 37.3337 95.9999ZM90.667 95.9999C92.1781 95.9999 93.4448 95.4888 94.467 94.4666C95.4892 93.4444 96.0003 92.1777 96.0003 90.6666C96.0003 89.1555 95.4892 87.8888 94.467 86.8666C93.4448 85.8444 92.1781 85.3333 90.667 85.3333C89.1559 85.3333 87.8892 85.8444 86.867 86.8666C85.8448 87.8888 85.3337 89.1555 85.3337 90.6666C85.3337 92.1777 85.8448 93.4444 86.867 94.4666C87.8892 95.4888 89.1559 95.9999 90.667 95.9999Z" fill="#F9F9F9"/>
</svg>
