<svg width="128" height="128" viewBox="0 0 128 128" fill="none" xmlns="http://www.w3.org/2000/svg">
<path d="M20.6663 102C17.5552 98.8888 15.9997 95.111 15.9997 90.6666H5.33301V31.9999C5.33301 29.0666 6.37745 26.5555 8.46634 24.4666C10.5552 22.3777 13.0663 21.3333 15.9997 21.3333H90.6663V42.6666H106.666L122.666 63.9999V90.6666H112C112 95.111 110.444 98.8888 107.333 102C104.222 105.111 100.444 106.667 95.9997 106.667C91.5552 106.667 87.7775 105.111 84.6663 102C81.5552 98.8888 79.9997 95.111 79.9997 90.6666H47.9997C47.9997 95.111 46.4441 98.8888 43.333 102C40.2219 105.111 36.4441 106.667 31.9997 106.667C27.5552 106.667 23.7775 105.111 20.6663 102ZM35.7997 94.4666C36.8219 93.4444 37.333 92.1777 37.333 90.6666C37.333 89.1555 36.8219 87.8888 35.7997 86.8666C34.7775 85.8444 33.5108 85.3333 31.9997 85.3333C30.4886 85.3333 29.2219 85.8444 28.1997 86.8666C27.1775 87.8888 26.6663 89.1555 26.6663 90.6666C26.6663 92.1777 27.1775 93.4444 28.1997 94.4666C29.2219 95.4888 30.4886 95.9999 31.9997 95.9999C33.5108 95.9999 34.7775 95.4888 35.7997 94.4666ZM15.9997 79.9999H20.2663C21.7775 78.3999 23.5108 77.111 25.4663 76.1333C27.4219 75.1555 29.5997 74.6666 31.9997 74.6666C34.3997 74.6666 36.5775 75.1555 38.533 76.1333C40.4886 77.111 42.2219 78.3999 43.733 79.9999H79.9997V31.9999H15.9997V79.9999ZM99.7997 94.4666C100.822 93.4444 101.333 92.1777 101.333 90.6666C101.333 89.1555 100.822 87.8888 99.7997 86.8666C98.7775 85.8444 97.5108 85.3333 95.9997 85.3333C94.4886 85.3333 93.2219 85.8444 92.1997 86.8666C91.1775 87.8888 90.6663 89.1555 90.6663 90.6666C90.6663 92.1777 91.1775 93.4444 92.1997 94.4666C93.2219 95.4888 94.4886 95.9999 95.9997 95.9999C97.5108 95.9999 98.7775 95.4888 99.7997 94.4666ZM90.6663 69.3333H113.333L101.333 53.3333H90.6663V69.3333Z" fill="#F9F9F9"/>
</svg>
