<svg width="128" height="128" viewBox="0 0 128 128" fill="none" xmlns="http://www.w3.org/2000/svg">
<path d="M59.2003 101.333H68.5337V94.6667C72.9781 93.8667 76.8003 92.1334 80.0003 89.4667C83.2003 86.8001 84.8003 82.8445 84.8003 77.6001C84.8003 73.8667 83.7337 70.4445 81.6003 67.3334C79.467 64.2223 75.2003 61.5112 68.8003 59.2001C63.467 57.4223 59.7781 55.8667 57.7337 54.5334C55.6892 53.2001 54.667 51.3779 54.667 49.0667C54.667 46.7556 55.4892 44.9334 57.1337 43.6001C58.7781 42.2667 61.1559 41.6001 64.267 41.6001C67.1114 41.6001 69.3337 42.289 70.9337 43.6667C72.5337 45.0445 73.6892 46.7556 74.4003 48.8001L82.9337 45.3334C81.9559 42.2223 80.1559 39.5112 77.5337 37.2001C74.9114 34.889 72.0003 33.6001 68.8003 33.3334V26.6667H59.467V33.3334C55.0225 34.3112 51.5559 36.2667 49.067 39.2001C46.5781 42.1334 45.3337 45.4223 45.3337 49.0667C45.3337 53.2445 46.5559 56.6223 49.0003 59.2001C51.4448 61.7779 55.2892 64.0001 60.5337 65.8667C66.1337 67.9112 70.0225 69.7334 72.2003 71.3334C74.3781 72.9334 75.467 75.0223 75.467 77.6001C75.467 80.5334 74.4225 82.689 72.3337 84.0667C70.2448 85.4445 67.7337 86.1334 64.8003 86.1334C61.867 86.1334 59.267 85.2223 57.0003 83.4001C54.7337 81.5779 53.067 78.8445 52.0003 75.2001L43.2003 78.6667C44.4448 82.9334 46.3781 86.3779 49.0003 89.0001C51.6225 91.6223 55.0225 93.4223 59.2003 94.4001V101.333ZM64.0003 117.333C56.6225 117.333 49.6892 115.933 43.2003 113.133C36.7114 110.333 31.067 106.533 26.267 101.733C21.467 96.9334 17.667 91.289 14.867 84.8001C12.067 78.3112 10.667 71.3779 10.667 64.0001C10.667 56.6223 12.067 49.689 14.867 43.2001C17.667 36.7112 21.467 31.0667 26.267 26.2667C31.067 21.4667 36.7114 17.6667 43.2003 14.8667C49.6892 12.0667 56.6225 10.6667 64.0003 10.6667C71.3781 10.6667 78.3114 12.0667 84.8003 14.8667C91.2892 17.6667 96.9337 21.4667 101.734 26.2667C106.534 31.0667 110.334 36.7112 113.134 43.2001C115.934 49.689 117.334 56.6223 117.334 64.0001C117.334 71.3779 115.934 78.3112 113.134 84.8001C110.334 91.289 106.534 96.9334 101.734 101.733C96.9337 106.533 91.2892 110.333 84.8003 113.133C78.3114 115.933 71.3781 117.333 64.0003 117.333ZM64.0003 106.667C75.9114 106.667 86.0003 102.533 94.267 94.2667C102.534 86.0001 106.667 75.9112 106.667 64.0001C106.667 52.089 102.534 42.0001 94.267 33.7334C86.0003 25.4667 75.9114 21.3334 64.0003 21.3334C52.0892 21.3334 42.0003 25.4667 33.7337 33.7334C25.467 42.0001 21.3337 52.089 21.3337 64.0001C21.3337 75.9112 25.467 86.0001 33.7337 94.2667C42.0003 102.533 52.0892 106.667 64.0003 106.667Z" fill="#F9F9F9"/>
</svg>
