<svg width="128" height="128" viewBox="0 0 128 128" fill="none" xmlns="http://www.w3.org/2000/svg">
<path d="M74.6663 69.3333C70.2219 69.3333 66.4441 67.7777 63.333 64.6666C60.2219 61.5555 58.6663 57.7777 58.6663 53.3333C58.6663 48.8888 60.2219 45.111 63.333 41.9999C66.4441 38.8888 70.2219 37.3333 74.6663 37.3333C79.1108 37.3333 82.8886 38.8888 85.9997 41.9999C89.1108 45.111 90.6663 48.8888 90.6663 53.3333C90.6663 57.7777 89.1108 61.5555 85.9997 64.6666C82.8886 67.7777 79.1108 69.3333 74.6663 69.3333ZM37.333 85.3333C34.3997 85.3333 31.8886 84.2888 29.7997 82.1999C27.7108 80.111 26.6663 77.5999 26.6663 74.6666V31.9999C26.6663 29.0666 27.7108 26.5555 29.7997 24.4666C31.8886 22.3777 34.3997 21.3333 37.333 21.3333H112C114.933 21.3333 117.444 22.3777 119.533 24.4666C121.622 26.5555 122.666 29.0666 122.666 31.9999V74.6666C122.666 77.5999 121.622 80.111 119.533 82.1999C117.444 84.2888 114.933 85.3333 112 85.3333H37.333ZM47.9997 74.6666H101.333C101.333 71.7333 102.377 69.2221 104.466 67.1333C106.555 65.0444 109.066 63.9999 112 63.9999V42.6666C109.066 42.6666 106.555 41.6221 104.466 39.5333C102.377 37.4444 101.333 34.9333 101.333 31.9999H47.9997C47.9997 34.9333 46.9552 37.4444 44.8663 39.5333C42.7775 41.6221 40.2663 42.6666 37.333 42.6666V63.9999C40.2663 63.9999 42.7775 65.0444 44.8663 67.1333C46.9552 69.2221 47.9997 71.7333 47.9997 74.6666ZM106.666 106.667H15.9997C13.0663 106.667 10.5552 105.622 8.46634 103.533C6.37745 101.444 5.33301 98.9333 5.33301 95.9999V37.3333H15.9997V95.9999H106.666V106.667Z" fill="#F9F9F9"/>
</svg>
