<svg width="128" height="128" viewBox="0 0 128 128" fill="none" xmlns="http://www.w3.org/2000/svg">
<path d="M26.6667 106.667C19.1111 106.667 12.7778 104.111 7.66667 98.9999C2.55556 93.8888 0 87.5555 0 79.9999C0 72.4444 2.6 66.111 7.8 60.9999C13 55.8888 19.2889 53.3333 26.6667 53.3333C33.5111 53.3333 39.2667 55.3777 43.9333 59.4666C48.6 63.5555 51.5556 68.6221 52.8 74.6666H56.2667L46.6667 47.9999H37.3333V37.3333H64V47.9999H58.1333L60 53.3333H85.6L77.8667 31.9999H64V21.3333H77.8667C80.1778 21.3333 82.2444 21.9555 84.0667 23.1999C85.8889 24.4444 87.2 26.1333 88 28.2666L97.0667 53.0666H101.333C108.711 53.0666 115 55.6666 120.2 60.8666C125.4 66.0666 128 72.3555 128 79.7333C128 87.1999 125.422 93.5555 120.267 98.7999C115.111 104.044 108.8 106.667 101.333 106.667C94.9333 106.667 89.3111 104.667 84.4667 100.667C79.6222 96.6666 76.5333 91.5555 75.2 85.3333H52.8C51.5556 91.4666 48.5333 96.5555 43.7333 100.6C38.9333 104.644 33.2444 106.667 26.6667 106.667ZM26.6667 95.9999C30.3111 95.9999 33.4444 94.9999 36.0667 92.9999C38.6889 90.9999 40.5333 88.4444 41.6 85.3333H26.6667V74.6666H41.6C40.5333 71.4666 38.6889 68.8888 36.0667 66.9333C33.4444 64.9777 30.3111 63.9999 26.6667 63.9999C22.1333 63.9999 18.3333 65.5333 15.2667 68.5999C12.2 71.6666 10.6667 75.4666 10.6667 79.9999C10.6667 84.4444 12.2 88.2221 15.2667 91.3333C18.3333 94.4444 22.1333 95.9999 26.6667 95.9999ZM67.7333 74.6666H75.2C75.6444 72.6221 76.2444 70.711 77 68.9333C77.7556 67.1555 78.7556 65.511 80 63.9999H63.7333L67.7333 74.6666ZM101.333 95.9999C105.867 95.9999 109.667 94.4444 112.733 91.3333C115.8 88.2221 117.333 84.4444 117.333 79.9999C117.333 75.4666 115.8 71.6666 112.733 68.5999C109.667 65.5333 105.867 63.9999 101.333 63.9999H100.8L106.133 78.1333L96 81.8666L90.9333 67.7333C89.1556 69.2444 87.7778 71.0221 86.8 73.0666C85.8222 75.111 85.3333 77.4221 85.3333 79.9999C85.3333 84.4444 86.8667 88.2221 89.9333 91.3333C93 94.4444 96.8 95.9999 101.333 95.9999Z" fill="#F9F9F9"/>
</svg>
