<svg width="128" height="128" viewBox="0 0 128 128" fill="none" xmlns="http://www.w3.org/2000/svg">
<path d="M21.333 106.667V91.7332C21.333 88.711 22.1108 85.9333 23.6663 83.3999C25.2219 80.8666 27.2886 78.9333 29.8663 77.5999C35.3775 74.8444 40.9775 72.7777 46.6663 71.3999C52.3552 70.0221 58.133 69.3332 63.9997 69.3332C65.7775 69.3332 67.5552 69.3999 69.333 69.5332C71.1108 69.6666 72.8886 69.8666 74.6663 70.1332V80.9332C72.8886 80.5777 71.1108 80.3332 69.333 80.1999C67.5552 80.0666 65.7775 79.9999 63.9997 79.9999C59.0219 79.9999 54.0886 80.5999 49.1997 81.7999C44.3108 82.9999 39.4663 84.7999 34.6663 87.1999C33.8663 87.6444 33.2219 88.2666 32.733 89.0666C32.2441 89.8666 31.9997 90.7555 31.9997 91.7332V95.9999H74.6663V106.667H21.333ZM48.933 57.7332C44.7552 53.5555 42.6663 48.5333 42.6663 42.6666C42.6663 36.7999 44.7552 31.7777 48.933 27.5999C53.1108 23.4221 58.133 21.3333 63.9997 21.3333C69.8663 21.3333 74.8886 23.4221 79.0663 27.5999C83.2441 31.7777 85.333 36.7999 85.333 42.6666C85.333 48.5333 83.2441 53.5555 79.0663 57.7332C74.8886 61.911 69.8663 63.9999 63.9997 63.9999C58.133 63.9999 53.1108 61.911 48.933 57.7332ZM71.533 50.1999C73.6219 48.111 74.6663 45.5999 74.6663 42.6666C74.6663 39.7333 73.6219 37.2221 71.533 35.1333C69.4441 33.0444 66.933 31.9999 63.9997 31.9999C61.0663 31.9999 58.5552 33.0444 56.4663 35.1333C54.3775 37.2221 53.333 39.7333 53.333 42.6666C53.333 45.5999 54.3775 48.111 56.4663 50.1999C58.5552 52.2888 61.0663 53.3333 63.9997 53.3333C66.933 53.3333 69.4441 52.2888 71.533 50.1999ZM95.9997 128V101.333H85.333V69.3332H117.333L106.666 90.6666H117.333L95.9997 128Z" fill="#F9F9F9"/>
</svg>
