<svg width="128" height="128" viewBox="0 0 128 128" fill="none" xmlns="http://www.w3.org/2000/svg">
<path d="M31.9997 117.333C29.0663 117.333 26.5552 116.289 24.4663 114.2C22.3775 112.111 21.333 109.6 21.333 106.667V42.6667C21.333 39.7334 22.3775 37.2223 24.4663 35.1334C26.5552 33.0445 29.0663 32.0001 31.9997 32.0001H42.6663C42.6663 26.1334 44.7552 21.1112 48.933 16.9334C53.1108 12.7556 58.133 10.6667 63.9997 10.6667C69.8663 10.6667 74.8886 12.7556 79.0663 16.9334C83.2441 21.1112 85.333 26.1334 85.333 32.0001H95.9997C98.933 32.0001 101.444 33.0445 103.533 35.1334C105.622 37.2223 106.666 39.7334 106.666 42.6667V106.667C106.666 109.6 105.622 112.111 103.533 114.2C101.444 116.289 98.933 117.333 95.9997 117.333H31.9997ZM31.9997 106.667H95.9997V42.6667H85.333V53.3334C85.333 54.8445 84.8219 56.1112 83.7997 57.1334C82.7775 58.1556 81.5108 58.6667 79.9997 58.6667C78.4886 58.6667 77.2219 58.1556 76.1997 57.1334C75.1775 56.1112 74.6663 54.8445 74.6663 53.3334V42.6667H53.333V53.3334C53.333 54.8445 52.8219 56.1112 51.7997 57.1334C50.7775 58.1556 49.5108 58.6667 47.9997 58.6667C46.4886 58.6667 45.2219 58.1556 44.1997 57.1334C43.1775 56.1112 42.6663 54.8445 42.6663 53.3334V42.6667H31.9997V106.667ZM53.333 32.0001H74.6663C74.6663 29.0667 73.6219 26.5556 71.533 24.4667C69.4441 22.3779 66.933 21.3334 63.9997 21.3334C61.0663 21.3334 58.5552 22.3779 56.4663 24.4667C54.3775 26.5556 53.333 29.0667 53.333 32.0001Z" fill="#F9F9F9"/>
</svg>
