<svg width="128" height="128" viewBox="0 0 128 128" fill="none" xmlns="http://www.w3.org/2000/svg">
<path d="M86.5279 22.5279C79.8719 22.5279 73.8559 24.9599 69.3759 29.0559C66.5599 20.9919 58.8799 15.2319 49.9199 15.2319C38.5279 15.2319 29.3119 24.4479 29.3119 35.8399C29.3119 39.2959 30.2079 42.4959 31.6159 45.3119C23.0399 45.6959 16.2559 52.7359 16.2559 61.3119C16.2559 70.1439 23.4239 77.3119 32.2559 77.3119C33.1519 77.3119 34.0479 77.1839 34.9439 77.0559C35.5839 89.0879 45.5679 98.6879 57.8559 98.6879C70.5279 98.6879 80.8959 88.4479 80.8959 75.6479C80.8959 75.0079 80.8959 74.2399 80.7679 73.5999C82.6879 73.9839 84.6079 74.2399 86.5279 74.2399C100.864 74.2399 112.384 62.7199 112.384 48.3839C112.384 34.1759 100.864 22.5279 86.5279 22.5279Z" fill="#F9F9F9"/>
<path d="M25.7279 85.76C21.5039 85.76 18.0479 89.216 18.0479 93.44C18.0479 97.664 21.5039 101.12 25.7279 101.12C29.9519 101.12 33.4079 97.664 33.4079 93.44C33.4079 89.216 29.9519 85.76 25.7279 85.76Z" fill="#F9F9F9"/>
<path d="M18.1759 115.584C20.7208 115.584 22.7839 113.521 22.7839 110.976C22.7839 108.431 20.7208 106.368 18.1759 106.368C15.6309 106.368 13.5679 108.431 13.5679 110.976C13.5679 113.521 15.6309 115.584 18.1759 115.584Z" fill="#F9F9F9"/>
</svg>
