<svg xmlns="http://www.w3.org/2000/svg" viewBox="0 0 24 24" fill="none" stroke="#2D4F8F" stroke-linecap="round" stroke-linejoin="round" stroke-width="1.9">
  <rect x="4.5" y="5.5" width="6.5" height="10" rx="1.8"/>
  <path d="M11 8h1.2A1.3 1.3 0 0 1 13.5 9.3v2.4a1.3 1.3 0 0 1-1.3 1.3H11"/>
  <path d="m8 8-1.4 2.2h1.5l-.9 2.3 2.8-3H8.7L9.5 8Z"/>
  <circle cx="17.5" cy="7.5" r="1.7"/>
  <path d="M17.5 9.6v3.1"/>
  <path d="M15.3 19.2v-3.3a2.2 2.2 0 0 1 2.2-2.2 2.2 2.2 0 0 1 2.2 2.2v3.3"/>
  <path d="M14.6 12.8l2.1 1.5"/>
  <path d="M20.4 12.8l-2.1 1.5"/>
</svg>
